<svg height="512pt" viewBox="0 0 512 512" width="512pt" xmlns="http://www.w3.org/2000/svg"><path d="m512 256c0 141.386719-114.613281 256-256 256s-256-114.613281-256-256 114.613281-256 256-256 256 114.613281 256 256zm0 0" fill="#6c7fd7"/><path d="m488.714844 121.644531c-12.21875-21.164062-47.550782-24.894531-102.183594-10.785156-18.527344 4.785156-38.5625 11.429687-59.527344 19.671875-2.980468-15.789062-6.535156-30.578125-10.644531-44.054688-15.175781-49.78125-36.050781-76.09375-60.359375-76.09375s-45.183594 26.3125-60.359375 76.09375c-10.410156 34.144532-17.300781 76.640626-20.085937 122.78125-44.097657 28.449219-82.464844 58.65625-110.515626 87.214844-39.535156 40.253906-53.972656 72.71875-41.753906 93.886719 7.367188 12.757813 23.125 19.179687 46.453125 19.179687 15.371094 0 34.03125-2.792968 55.730469-8.398437 18.527344-4.785156 38.5625-11.425781 59.527344-19.671875 2.980468 15.789062 6.535156 30.578125 10.644531 44.054688 15.175781 49.78125 36.050781 76.09375 60.359375 76.09375s45.183594-26.3125 60.359375-76.09375c10.410156-34.144532 17.300781-76.640626 20.085937-122.78125 44.097657-28.449219 82.464844-58.652344 110.515626-87.214844 39.535156-40.253906 53.972656-72.71875 41.753906-93.882813zm-273.945313-29.335937c13.921875-45.660156 30.425781-61.925782 41.230469-61.925782s27.308594 16.269532 41.230469 61.925782c4.253906 13.953125 7.890625 29.402344 10.875 45.984375-30.039063 12.84375-61.566407 28.675781-93.023438 46.835937-6.269531 3.621094-12.457031 7.292969-18.558593 11 3.144531-38.980468 9.355468-74.660156 18.246093-103.820312zm103.066407 163.691406c0 11.972656-.277344 23.796875-.8125 35.402344-9.785157 6.152344-19.832032 12.214844-30.105469 18.148437-29.191407 16.851563-58.390625 31.636719-86.28125 43.789063-4.238281-30.074219-6.472657-63.117188-6.472657-97.339844 0-11.972656.277344-23.796875.8125-35.402344 9.785157-6.152344 19.832032-12.214844 30.105469-18.148437 29.191407-16.851563 58.390625-31.636719 86.28125-43.789063 4.238281 30.074219 6.472657 63.117188 6.472657 97.339844zm-197.367188 125.777344c-50.773438 13.113281-74.753906 7.433594-79.863281-1.421875-5.109375-8.847657 1.960937-32.457031 38.703125-69.871094 24.511718-24.960937 57.339844-51.304687 95.167968-76.59375-.203124 7.308594-.3125 14.683594-.3125 22.109375 0 37.066406 2.574219 72.886719 7.433594 105.304688-21.609375 8.660156-42.207031 15.585937-61.128906 20.472656zm176.761719 37.914062c-13.921875 45.65625-30.425781 61.925782-41.230469 61.925782s-27.308594-16.269532-41.230469-61.925782c-4.253906-13.953125-7.890625-29.402344-10.875-45.984375 30.039063-12.84375 61.566407-28.675781 93.023438-46.835937 6.269531-3.621094 12.457031-7.292969 18.558593-11-3.144531 38.980468-9.355468 74.660156-18.246093 103.820312zm135.460937-218.175781c-24.511718 24.960937-57.339844 51.304687-95.167968 76.59375.203124-7.308594.3125-14.683594.3125-22.109375 0-37.066406-2.574219-72.886719-7.433594-105.304688 21.609375-8.660156 42.207031-15.582031 61.128906-20.472656 21.496094-5.550781 38.183594-7.734375 50.675781-7.734375 17.015625 0 26.238281 4.050781 29.1875 9.15625 5.109375 8.847657-1.960937 32.457031-38.703125 69.871094zm0 0" fill="#172a7d"/><path d="m408.941406 232.074219-24.605468-7.382813c-7.449219-2.234375-13.5-7.695312-16.472657-14.878906-.027343-.074219-.058593-.148438-.089843-.222656-2.988282-7.191406-2.582032-15.34375 1.109374-22.199219l12.179688-22.617187c3.542969-6.578126 2.351562-14.703126-2.933594-19.988282l-10.914062-10.914062c-5.28125-5.285156-13.410156-6.476563-19.988282-2.933594l-22.617187 12.179688c-6.855469 3.691406-15.007813 4.097656-22.199219 1.109374-.074218-.03125-.148437-.0625-.222656-.089843-7.183594-2.972657-12.648438-9.023438-14.878906-16.472657l-7.382813-24.605468c-2.148437-7.15625-8.734375-12.058594-16.210937-12.058594h-15.433594c-7.472656 0-14.058594 4.902344-16.207031 12.0625l-7.382813 24.601562c-2.234375 7.449219-7.695312 13.503907-14.878906 16.472657-.074219.027343-.148438.058593-.222656.089843-7.191406 2.988282-15.34375 2.582032-22.199219-1.109374l-22.617187-12.179688c-6.582032-3.542969-14.707032-2.351562-19.992188 2.933594l-10.910156 10.914062c-5.285156 5.285156-6.476563 13.410156-2.933594 19.988282l12.175781 22.621093c3.695313 6.855469 4.101563 15.007813 1.113281 22.199219-.03125.070312-.0625.144531-.09375.21875-2.96875 7.1875-9.023437 12.648438-16.46875 14.878906l-24.605468 7.382813c-7.15625 2.148437-12.058594 8.734375-12.058594 16.210937v15.433594c0 7.472656 4.902344 14.058594 12.058594 16.207031l24.605468 7.382813c7.449219 2.234375 13.5 7.695312 16.472657 14.878906.027343.074219.058593.148438.089843.222656 2.988282 7.191406 2.582032 15.34375-1.109374 22.199219l-12.179688 22.617187c-3.542969 6.578126-2.351562 14.703126 2.933594 19.988282l10.914062 10.914062c5.285156 5.285156 13.410156 6.476563 19.988282 2.933594l22.617187-12.179688c6.855469-3.691406 15.007813-4.097656 22.199219-1.109374.074218.03125.148437.0625.222656.089843 7.183594 2.972657 12.648438 9.023438 14.878906 16.472657l7.382813 24.605468c2.148437 7.15625 8.738281 12.058594 16.210937 12.058594h15.433594c7.472656 0 14.058594-4.902344 16.207031-12.058594l7.382813-24.605468c2.234375-7.449219 7.695312-13.5 14.878906-16.472657.074219-.027343.148438-.058593.222656-.089843 7.191406-2.988282 15.34375-2.582032 22.199219 1.109374l22.617187 12.179688c6.582032 3.542969 14.707032 2.351562 19.992188-2.933594l10.910156-10.914062c5.285156-5.285156 6.476563-13.410156 2.933594-19.988282l-12.175781-22.617187c-3.695313-6.855469-4.101563-15.007813-1.113281-22.199219.03125-.074218.0625-.148437.09375-.222656 2.96875-7.183594 9.023437-12.644531 16.46875-14.878906l24.605468-7.382813c7.160156-2.148437 12.0625-8.734375 12.0625-16.207031v-15.433594c-.003906-7.476562-4.90625-14.0625-12.0625-16.210937zm-152.941406 58.644531c-19.175781 0-34.71875-15.542969-34.71875-34.71875s15.542969-34.71875 34.71875-34.71875 34.71875 15.542969 34.71875 34.71875-15.542969 34.71875-34.71875 34.71875zm0 0" fill="#fdbf43"/><path d="m256 181.976562c-40.882812 0-74.027344 33.140626-74.027344 74.023438s33.144532 74.023438 74.027344 74.023438 74.027344-33.140626 74.027344-74.023438-33.144532-74.023438-74.027344-74.023438zm0 108.742188c-19.175781 0-34.71875-15.542969-34.71875-34.71875s15.542969-34.71875 34.71875-34.71875 34.71875 15.542969 34.71875 34.71875-15.542969 34.71875-34.71875 34.71875zm0 0" fill="#fc9302"/><path d="m269.101562 183.128906c-34.632812 6.1875-60.921874 36.460938-60.921874 72.871094s26.289062 66.683594 60.921874 72.871094c34.632813-6.1875 60.925782-36.460938 60.925782-72.871094s-26.292969-66.683594-60.925782-72.871094zm-13.101562 107.589844c-19.175781 0-34.71875-15.542969-34.71875-34.71875s15.542969-34.71875 34.71875-34.71875 34.71875 15.542969 34.71875 34.71875-15.542969 34.71875-34.71875 34.71875zm0 0" fill="#fda800"/><path d="m488.714844 390.355469c-7.367188 12.757812-23.128906 19.179687-46.453125 19.179687-15.371094 0-34.027344-2.789062-55.730469-8.394531-49.953125-12.902344-110.839844-39.277344-171.445312-74.269531-60.609376-34.992188-113.898438-74.535156-150.046876-111.34375-39.535156-40.257813-53.972656-72.722656-41.753906-93.886719 12.222656-21.164063 47.554688-24.894531 102.183594-10.785156 26.714844 6.902343 56.558594 17.65625 87.808594 31.523437-1.101563.664063-2.257813 1.257813-3.464844 1.757813-.074219.027343-.148438.058593-.21875.089843-7.191406 2.988282-15.34375 2.582032-22.199219-1.109374l-22.621093-12.179688c-6.578126-3.542969-14.703126-2.351562-19.988282 2.933594l-2.617187 2.617187c-7.4375-2.355469-14.6875-4.453125-21.699219-6.265625-21.492188-5.550781-38.1875-7.734375-50.675781-7.734375-17.015625 0-26.238281 4.050781-29.1875 9.15625-5.109375 8.847657 1.960937 32.457031 38.703125 69.871094 34.917968 35.554687 86.6875 73.921875 145.773437 108.035156 59.085938 34.113281 118.199219 59.765625 166.449219 72.226563 50.773438 13.113281 74.753906 7.429687 79.863281-1.417969 5.109375-8.851563-1.960937-32.460937-38.703125-69.871094-9.164062-9.332031-19.496094-18.855469-30.808594-28.445312l7.054688-2.117188c4.773438-1.429687 8.527344-4.839843 10.511719-9.160156 9.992187 8.65625 19.207031 17.253906 27.511719 25.707031 39.535156 40.253906 53.972656 72.71875 41.753906 93.882813zm0 0" fill="#172a7d"/><path d="m290 335c0 19.328125-15.671875 35-35 35s-35-15.671875-35-35 15.671875-35 35-35 35 15.671875 35 35zm0 0" fill="#fde5bd"/><path d="m265 350c-13.808594 0-25-11.191406-25-25 0-12.25 8.8125-22.433594 20.4375-24.578125 14.976562 2.339844 26.804688 14.167969 29.140625 29.140625-2.144531 11.625-12.328125 20.4375-24.578125 20.4375zm0 0" fill="#fff5f5"/></svg>